<svg viewBox="0 0 138 42" xmlns="http://www.w3.org/2000/svg"><path d="m0 0h138v42h-138z" fill="none"/><rect height="40" rx="5" width="135" x="1.5" y="1"/><g fill="#fff"><path d="m25.48 21.69c.02-1.7.91-3.26 2.36-4.15-.92-1.31-2.4-2.11-3.99-2.16-1.68-.18-3.31 1-4.16 1s-2.19-.99-3.61-.96c-1.87.06-3.56 1.1-4.47 2.73-1.93 3.35-.49 8.27 1.36 10.98.93 1.33 2.01 2.81 3.43 2.75 1.39-.06 1.91-.88 3.58-.88s2.14.88 3.59.85c1.49-.02 2.43-1.33 3.32-2.67.67-.94 1.18-1.99 1.52-3.09-1.77-.75-2.92-2.48-2.92-4.4z"/><path d="m22.75 13.6c.81-.97 1.21-2.23 1.11-3.49-1.24.13-2.39.72-3.21 1.66-.81.92-1.22 2.13-1.14 3.36 1.26.01 2.45-.55 3.24-1.53z"/><path d="m36.31 25.25c0-.26.22-.47.49-.47s.47.22.47.49c0 .26-.22.47-.48.47s-.48-.21-.48-.47c0 0 0 0 0-.01zm.08 6.12v-5.15h.8v5.15z"/><path d="m38.5 27.48h.74v.62h.06c.2-.45.67-.73 1.16-.69.7-.05 1.3.47 1.36 1.17 0 .09 0 .19-.01.28v2.52h-.77v-2.32c0-.62-.27-.93-.84-.93-.49-.02-.91.36-.93.85v.14 2.27h-.77v-3.89z"/><path d="m42.79 29.42c0-1.23.63-2.01 1.61-2.01.5-.02.96.24 1.19.68h.06v-2.13h.77v5.4h-.73v-.61h-.06c-.25.44-.72.7-1.22.68-.99 0-1.61-.78-1.61-2.01zm.79 0c0 .82.39 1.32 1.04 1.32s1.05-.5 1.05-1.32-.4-1.32-1.05-1.32-1.04.5-1.04 1.32z"/><path d="m47.58 26.33c-.02-.27.19-.51.47-.53.27-.02.51.19.53.47s-.19.51-.47.53c0 0-.02 0-.03 0-.26.01-.48-.19-.5-.45 0 0 0-.01 0-.02zm.11 1.15h.76v3.89h-.76z"/><path d="m49.69 27.48h.74v.6h.06c.17-.42.59-.69 1.05-.66.11 0 .23 0 .34.03v.76c-.14-.03-.28-.05-.43-.05-.5-.04-.94.32-.99.83v.09 2.29h-.77z"/><path d="m52.68 26.33c-.02-.27.19-.51.47-.53.27-.02.51.19.53.47s-.19.51-.47.53c0 0-.02 0-.03 0-.26.01-.48-.19-.5-.45 0 0 0-.01 0-.02zm.11 1.15h.76v3.89h-.76z"/><path d="m54.8 27.48h.74v.62h.06c.2-.45.67-.73 1.16-.69.7-.05 1.3.47 1.36 1.17 0 .09 0 .19-.01.28v2.52h-.77v-2.32c0-.62-.27-.93-.84-.93-.49-.02-.91.36-.93.85v.14 2.27h-.77v-3.89z"/><path d="m42.11 19.2h-4.08l-.98 2.9h-1.73l3.87-10.72h1.8l3.87 10.72h-1.76l-.98-2.9zm-3.66-1.34h3.24l-1.6-4.7h-.04z"/><path d="m53.21 18.19c0 2.43-1.3 3.99-3.26 3.99-1.01.05-1.97-.48-2.46-1.37h-.04v3.87h-1.6v-10.39h1.55v1.3h.03c.51-.88 1.47-1.41 2.49-1.38 1.98 0 3.29 1.57 3.29 3.99zm-1.65 0c0-1.58-.82-2.62-2.06-2.62s-2.05 1.06-2.05 2.62.82 2.63 2.05 2.63c1.25 0 2.06-1.03 2.06-2.63z"/><path d="m61.81 18.19c0 2.43-1.3 3.99-3.26 3.99-1.01.05-1.97-.48-2.46-1.37h-.04v3.87h-1.6v-10.39h1.55v1.3h.03c.51-.88 1.47-1.41 2.49-1.38 1.98 0 3.29 1.57 3.29 3.99zm-1.65 0c0-1.58-.82-2.62-2.06-2.62s-2.05 1.06-2.05 2.62.82 2.63 2.05 2.63c1.25 0 2.06-1.03 2.06-2.63z"/><path d="m67.49 19.12c.12 1.06 1.15 1.76 2.56 1.76s2.32-.7 2.32-1.66c0-.83-.59-1.33-1.98-1.67l-1.39-.33c-1.97-.48-2.88-1.4-2.88-2.89 0-1.85 1.61-3.12 3.9-3.12s3.82 1.27 3.87 3.12h-1.62c-.1-1.07-.98-1.71-2.27-1.71s-2.18.65-2.18 1.6c0 .76.56 1.2 1.95 1.54l1.18.29c2.2.52 3.11 1.4 3.11 2.97 0 2-1.6 3.26-4.14 3.26-2.38 0-3.98-1.23-4.08-3.16h1.64z"/><path d="m77.53 12.44v1.85h1.49v1.27h-1.49v4.31c0 .67.3.98.95.98.18 0 .35-.02.53-.04v1.26c-.29.05-.59.08-.89.07-1.58 0-2.2-.59-2.2-2.11v-4.48h-1.14v-1.27h1.14v-1.85h1.61z"/><path d="m79.88 18.19c0-2.46 1.45-4 3.71-4s3.71 1.54 3.71 4-1.43 4-3.71 4-3.71-1.54-3.71-4zm5.78 0c0-1.69-.77-2.68-2.07-2.68s-2.07 1-2.07 2.68.77 2.68 2.07 2.68 2.07-.99 2.07-2.68z"/><path d="m88.61 14.29h1.53v1.33h.04c.21-.86 1-1.45 1.88-1.41.18 0 .37.02.55.06v1.5c-.23-.07-.48-.1-.72-.1-.89-.04-1.64.66-1.68 1.55v.25 4.63h-1.6z"/><path d="m100 19.81c-.22 1.42-1.6 2.39-3.36 2.39-2.27 0-3.68-1.52-3.68-3.97s1.42-4.04 3.62-4.04 3.52 1.48 3.52 3.85v.55h-5.52v.1c-.1 1.12.73 2.11 1.85 2.21h.25c.78.07 1.51-.37 1.8-1.1h1.52zm-5.42-2.33h3.91c.06-1.04-.74-1.92-1.77-1.98-.05 0-.1 0-.14 0-1.09 0-1.98.87-1.99 1.97v.02z"/><path d="m101.17 15.31.88-3.92h1.56l-1.06 3.92h-1.37z"/><path d="m103.53 18.19c0-2.41 1.33-3.99 3.27-3.99 1.01-.05 1.97.49 2.45 1.38h.03v-4.2h1.61v10.72h-1.56v-1.33h-.03c-.49.91-1.46 1.46-2.49 1.41-1.95 0-3.28-1.57-3.28-3.99zm1.64 0c0 1.6.82 2.63 2.06 2.63s2.06-1.04 2.06-2.63-.82-2.62-2.06-2.62c-1.25 0-2.06 1.03-2.06 2.62z"/><path d="m112.31 19.88c0-1.37 1.05-2.19 2.9-2.3l2.14-.12v-.59c0-.87-.57-1.36-1.54-1.36-.75-.1-1.45.37-1.64 1.1h-1.5c.04-1.41 1.36-2.41 3.19-2.41s3.1 1.02 3.1 2.55v5.35h-1.54v-1.29h-.04c-.5.89-1.45 1.43-2.47 1.42-1.3.13-2.46-.82-2.59-2.13 0-.08-.01-.15-.01-.23zm5.04-.71v-.6l-1.92.12c-.96.06-1.5.48-1.5 1.14s.56 1.13 1.43 1.13c1.03.07 1.92-.71 1.99-1.74 0-.02 0-.03 0-.05z"/><path d="m120.58 14.29h1.53v1.33h.04c.44-.94 1.42-1.5 2.46-1.42 1.72 0 2.71 1.11 2.71 2.9v5.01h-1.61v-4.69c0-1.17-.54-1.83-1.67-1.83-1-.03-1.84.77-1.86 1.77 0 .08 0 .17.01.25v4.5h-1.6v-7.81z"/></g></svg>