<svg viewBox="0 0 138 42" xmlns="http://www.w3.org/2000/svg"><path d="m0 0h138v42h-138z" fill="none"/><rect height="40" rx="5" width="135" x="1.5" y="1"/><path d="m69.24 23.13c-2.35 0-4.27 1.79-4.27 4.25s1.92 4.25 4.27 4.25 4.27-1.81 4.27-4.25-1.92-4.25-4.27-4.25m0 6.83c-1.29 0-2.4-1.06-2.4-2.58s1.11-2.58 2.4-2.58 2.4 1.05 2.4 2.58-1.11 2.58-2.4 2.58m-9.31-6.83c-2.35 0-4.27 1.79-4.27 4.25s1.92 4.25 4.27 4.25 4.27-1.81 4.27-4.25-1.92-4.25-4.27-4.25m0 6.83c-1.29 0-2.4-1.06-2.4-2.58s1.11-2.58 2.4-2.58 2.4 1.05 2.4 2.58-1.11 2.58-2.4 2.58m-11.08-5.52v1.8h4.32c-.13 1.02-.47 1.76-.98 2.27-.63.63-1.61 1.32-3.34 1.32-2.66 0-4.74-2.14-4.74-4.8s2.08-4.8 4.74-4.8c1.43 0 2.48.56 3.25 1.29l1.27-1.27c-1.08-1.03-2.51-1.82-4.53-1.82-3.64 0-6.7 2.97-6.7 6.61s3.06 6.61 6.7 6.61c1.97 0 3.45-.65 4.61-1.85 1.19-1.19 1.56-2.87 1.56-4.22 0-.42-.03-.81-.1-1.13h-6.07zm45.31 1.4c-.36-.95-1.43-2.71-3.64-2.71s-4.01 1.72-4.01 4.25c0 2.38 1.8 4.25 4.22 4.25 1.95 0 3.08-1.19 3.55-1.89l-1.45-.97c-.48.71-1.14 1.18-2.1 1.18s-1.63-.43-2.06-1.29l5.69-2.35-.19-.48zm-5.8 1.42c-.05-1.64 1.27-2.48 2.22-2.48.74 0 1.37.37 1.58.9zm-4.62 4.12h1.87v-12.5h-1.87zm-3.06-7.3h-.06c-.42-.5-1.22-.95-2.24-.95-2.13 0-4.08 1.87-4.08 4.27s1.95 4.24 4.08 4.24c1.01 0 1.82-.45 2.24-.97h.06v.61c0 1.63-.87 2.5-2.27 2.5-1.14 0-1.85-.82-2.14-1.51l-1.63.68c.47 1.13 1.71 2.51 3.77 2.51 2.19 0 4.04-1.29 4.04-4.43v-7.64h-1.77zm-2.14 5.88c-1.29 0-2.37-1.08-2.37-2.56s1.08-2.59 2.37-2.59 2.27 1.1 2.27 2.59-1 2.56-2.27 2.56m24.38-11.08h-4.47v12.5h1.87v-4.74h2.61c2.07 0 4.1-1.5 4.1-3.88s-2.03-3.88-4.1-3.88m.05 6.03h-2.65v-4.29h2.65c1.39 0 2.19 1.16 2.19 2.14s-.79 2.14-2.19 2.14m11.53-1.8c-1.35 0-2.75.6-3.33 1.91l1.66.69c.35-.69 1.01-.92 1.71-.92.96 0 1.95.58 1.96 1.61v.13c-.34-.19-1.06-.48-1.95-.48-1.78 0-3.6.98-3.6 2.81 0 1.67 1.46 2.75 3.1 2.75 1.25 0 1.95-.56 2.38-1.22h.06v.96h1.8v-4.79c0-2.22-1.66-3.46-3.8-3.46m-.22 6.85c-.61 0-1.46-.31-1.46-1.06 0-.96 1.06-1.33 1.98-1.33.82 0 1.21.18 1.7.42-.14 1.16-1.14 1.98-2.22 1.98m10.58-6.58-2.14 5.42h-.06l-2.22-5.42h-2.01l3.33 7.58-1.9 4.21h1.95l5.13-11.79zm-16.81 8h1.87v-12.5h-1.87z" fill="#fff"/><path d="m21.82 20.8-10.65 11.3s0 0 0 0c.33 1.23 1.45 2.13 2.78 2.13.53 0 1.03-.14 1.46-.4l.03-.02 11.98-6.92-5.61-6.11z" fill="#e94434"/><path d="m32.59 18.88s-5.17-3.01-5.17-3.01l-5.83 5.19 5.85 5.85 5.15-2.97c.9-.49 1.51-1.44 1.51-2.54s-.6-2.04-1.5-2.53" fill="#f8bb15"/><path d="m11.17 10.66c-.06.24-.1.48-.1.74v19.96c0 .26.03.5.1.74l11.01-11.01z" fill="#547dbe"/><path d="m21.9 21.38 5.51-5.51-11.97-6.94c-.44-.26-.94-.41-1.49-.41-1.33 0-2.45.91-2.78 2.13l10.73 10.72z" fill="#32a851"/><g fill="#fff"><path d="m43.01 7.43c-.1-.1-.15-.23-.15-.37s.05-.27.15-.37.22-.15.36-.15.27.05.37.15.15.22.15.37-.05.26-.15.37c-.1.1-.22.16-.37.16s-.26-.05-.36-.16zm-.12.85h.96v6.23h-.96z"/><path d="m45.42 8.28h1.13l2.82 4.58h.05l-.05-1.2v-3.38h.95v6.23h-.99l-2.96-4.81h-.05l.05 1.2v3.61h-.95z"/><path d="m51.89 8.28h1.99c.64 0 1.21.13 1.68.39.48.26.85.63 1.1 1.1.26.47.39 1.01.39 1.62s-.13 1.15-.39 1.62-.63.84-1.1 1.1c-.48.26-1.04.39-1.68.39h-1.99v-6.23zm1.97 5.32c.71 0 1.26-.2 1.65-.59s.59-.93.59-1.62-.2-1.23-.59-1.62-.94-.59-1.65-.59h-1.01v4.42z"/><path d="m58.41 7.43c-.1-.1-.15-.23-.15-.37s.05-.27.15-.37.22-.15.36-.15.27.05.37.15.15.22.15.37-.05.26-.15.37c-.1.1-.22.16-.37.16s-.26-.05-.36-.16zm-.12.85h.96v6.23h-.96z"/><path d="m60.83 8.28h2.18c.38 0 .72.08 1.02.24s.55.39.72.68c.18.29.27.62.27.98 0 .42-.13.79-.4 1.11s-.61.54-1.01.65v.04s1.71 2.47 1.71 2.47v.05h-1.1l-1.66-2.44h-.76v2.44h-.96v-6.23zm2.16 2.91c.3 0 .56-.1.76-.29.21-.19.31-.43.31-.72 0-.27-.09-.5-.28-.7s-.44-.3-.75-.3h-1.24v2.01z"/><path d="m66.42 7.43c-.1-.1-.15-.23-.15-.37s.05-.27.15-.37.22-.15.36-.15.27.05.37.15.15.22.15.37-.05.26-.15.37c-.1.1-.22.16-.37.16s-.26-.05-.36-.16zm-.12.85h.96v6.23h-.96z"/><path d="m68.83 8.28h1.13l2.82 4.58h.05l-.05-1.2v-3.38h.95v6.23h-.99l-2.96-4.81h-.05l.05 1.2v3.61h-.95z"/></g></svg>